<?xml version="1.0" encoding="utf-8"?>
<!-- Generator: Adobe Illustrator 24.3.0, SVG Export Plug-In . SVG Version: 6.00 Build 0)  -->
<svg version="1.1" id="Layer_1" xmlns="http://www.w3.org/2000/svg" xmlns:xlink="http://www.w3.org/1999/xlink" x="0px" y="0px"
	 viewBox="0 0 30 30" style="enable-background:new 0 0 30 30;" xml:space="preserve">
<style type="text/css">
	.st0{fill:#FFFFFF;}
</style>
<g>
	<g>
		<path class="st0" d="M19.7,19.84v-9.68c0-2.2-2.51-3.46-4.28-2.14l-6.45,4.84c-1.43,1.07-1.43,3.21,0,4.28l6.45,4.84
			C17.18,23.3,19.7,22.04,19.7,19.84z"/>
	</g>
	<g>
		<path class="st0" d="M15,30c8.27,0,15-6.73,15-15c0-8.27-6.73-15-15-15C6.73,0,0,6.73,0,15C0,23.27,6.73,30,15,30z M15,2.66
			c6.81,0,12.34,5.54,12.34,12.34c0,6.81-5.54,12.34-12.34,12.34C8.19,27.34,2.66,21.81,2.66,15C2.66,8.19,8.19,2.66,15,2.66z"/>
	</g>
</g>
</svg>
