<?xml version="1.0" encoding="utf-8"?>
<!-- Generator: Adobe Illustrator 24.3.0, SVG Export Plug-In . SVG Version: 6.00 Build 0)  -->
<svg version="1.1" id="Layer_1" xmlns="http://www.w3.org/2000/svg" xmlns:xlink="http://www.w3.org/1999/xlink" x="0px" y="0px"
	 viewBox="0 0 30 30" style="enable-background:new 0 0 30 30;" xml:space="preserve">
<style type="text/css">
	.st0{fill:#FFFFFF;}
</style>
<g>
	<g>
		<path class="st0" d="M10.3,19.84v-9.68c0-2.2,2.51-3.46,4.28-2.14l6.45,4.84c1.43,1.07,1.43,3.21,0,4.28l-6.45,4.84
			C12.82,23.3,10.3,22.04,10.3,19.84z"/>
	</g>
	<g>
		<path class="st0" d="M15,30C6.73,30,0,23.27,0,15C0,6.73,6.73,0,15,0c8.27,0,15,6.73,15,15C30,23.27,23.27,30,15,30z M15,2.66
			C8.19,2.66,2.66,8.19,2.66,15c0,6.81,5.54,12.34,12.34,12.34c6.81,0,12.34-5.54,12.34-12.34C27.34,8.19,21.81,2.66,15,2.66z"/>
	</g>
</g>
</svg>
